PathFileType	4	(X/Y/Z)	C:/Users/opensim2020/Desktop/walking_exp_matlab/subject06_walking23_straight_01.trc	
DataRate	CameraRate	NumFrames	NumMarkers	Units	OrigDataRate	OrigDataStartFrame	OrigNumFrames	
100.00	100.00	5	45	mm	100.00	804	106	
Frame#	Time	LFHD			RFHD			LBHD			RBHD			C7			T10			CLAV			STRN			RBAK			LSHO			LUPA			LELB			LFRM			LWRA			LWRB			LFIN			RSHO			RUPA			RELB			RFRM			RWRA			RWRB			RFIN			LASI			RASI			LPSI			RPSI			LTHI			LKNE			LTIB			LANK			LHEE			LTOE			RTHI			RKNE			RTIB			RANK			RHEE			RTOE			*39			*40			*41			*42			*43			*44			
		X1	Y1	Z1	X2	Y2	Z2	X3	Y3	Z3	X4	Y4	Z4	X5	Y5	Z5	X6	Y6	Z6	X7	Y7	Z7	X8	Y8	Z8	X9	Y9	Z9	X10	Y10	Z10	X11	Y11	Z11	X12	Y12	Z12	X13	Y13	Z13	X14	Y14	Z14	X15	Y15	Z15	X16	Y16	Z16	X17	Y17	Z17	X18	Y18	Z18	X19	Y19	Z19	X20	Y20	Z20	X21	Y21	Z21	X22	Y22	Z22	X23	Y23	Z23	X24	Y24	Z24	X25	Y25	Z25	X26	Y26	Z26	X27	Y27	Z27	X28	Y28	Z28	X29	Y29	Z29	X30	Y30	Z30	X31	Y31	Z31	X32	Y32	Z32	X33	Y33	Z33	X34	Y34	Z34	X35	Y35	Z35	X36	Y36	Z36	X37	Y37	Z37	X38	Y38	Z38	X39	Y39	Z39	X40	Y40	Z40	X41	Y41	Z41	X42	Y42	Z42	X43	Y43	Z43	X44	Y44	Z44	X45	Y45	Z45	

67	0.660	1361.52844	30.53719	1632.61523	1493.12366	42.11342	1629.12195	1377.17493	-105.02903	1587.03149	1506.23535	-91.98428	1588.67114	1438.87317	-109.96509	1430.36987	1443.79944	-159.03957	1102.76563	1437.53601	-2.57998	1349.25439	1435.54138	30.95026	1172.61865	1525.33899	-187.94795	1264.72644	1276.40466	-64.24608	1379.42578	1209.09802	-118.65285	1184.84277	1202.35413	-155.53021	1078.06055	1180.71448	-176.09047	929.25342	1221.11218	-149.88541	801.21216	1184.21399	-209.96935	814.99805	1186.34241	-197.90468	724.14948	1598.64856	-42.23651	1387.01294	1700.27234	-76.82396	1196.40881	1721.09424	-57.89433	1080.66370	1731.01807	11.81803	988.07990	1680.27356	132.09631	910.92810	1725.14331	93.52131	878.98468	1714.88440	167.11723	839.46796	1348.46033	24.19611	938.59192	1566.27295	-0.89876	941.98907	1353.36890	-134.93950	964.08978	1521.15613	-149.12451	974.28766	1281.39697	31.46731	627.53882	1321.86084	96.49184	482.26642	1339.70068	165.67239	241.10168	1386.58337	242.51167	87.40832	1436.17688	213.60907	61.67520	1387.56360	387.20172	112.72344	1598.75110	-117.61297	617.05548	1574.28845	-143.70715	492.29486	1547.26819	-291.91855	263.56775	1486.64209	-374.21655	101.55424	1436.45239	-415.81723	91.64429	1502.74707	-238.86633	35.96254	1427.25366	-61.51106	1680.49609															 
68	0.670	1360.76892	44.85353	1630.88306	1492.45154	56.45248	1627.56030	1376.65808	-90.76884	1584.92151	1505.66199	-77.59937	1586.77991	1438.29883	-95.43403	1428.43823	1443.51392	-143.68484	1100.50256	1437.19153	12.16096	1347.45032	1435.49988	45.93618	1170.87671	1525.06812	-173.22021	1262.89941	1275.93945	-49.78921	1377.14392	1209.12878	-105.07130	1182.74280	1202.62671	-142.77980	1076.28772	1181.09875	-164.79689	927.64587	1221.65710	-139.74913	799.38812	1184.63831	-199.75876	813.90417	1186.91492	-188.55365	722.81812	1598.32715	-27.54892	1385.29114	1700.18384	-63.03713	1195.03333	1721.26965	-44.59861	1079.30750	1730.61816	25.45561	987.28375	1679.31897	146.29646	911.54553	1724.40491	108.40483	879.12592	1713.66809	182.26572	840.45868	1348.92419	40.73849	937.19073	1566.80579	14.22498	940.46143	1352.42114	-118.53001	961.90503	1520.12598	-133.96425	971.87885	1280.97913	49.23192	626.21564	1322.24719	113.54442	481.11395	1340.26672	184.60867	239.91905	1388.25989	261.51654	86.89406	1437.71155	232.68372	60.71697	1389.82690	405.73862	114.39143	1599.68445	-103.29876	615.92273	1575.69104	-129.83742	491.11710	1548.81921	-283.77902	265.90750	1488.68213	-371.36407	106.52158	1438.90430	-413.59506	98.55862	1502.67957	-238.76176	35.89861	1426.53198	-47.41152	1678.57129															 
69	0.680	1360.12598	59.03676	1629.24976	1491.70313	70.81477	1626.29651	1375.96094	-76.32779	1583.16589	1504.94946	-63.13647	1585.20483	1437.81970	-80.87758	1426.85767	1443.26672	-128.30457	1098.60132	1436.73877	26.99356	1345.95117	1435.40393	61.16199	1169.51648	1524.65759	-158.58507	1261.31848	1275.34167	-35.22561	1375.21765	1209.04785	-91.23943	1180.93433	1202.70679	-129.45209	1074.62927	1181.35693	-152.52815	926.19684	1221.77893	-128.45584	797.81580	1185.11719	-188.63428	812.69135	1187.37256	-178.15059	721.55023	1597.84937	-12.99540	1383.89014	1699.97437	-49.35085	1193.94958	1721.28955	-31.52835	1078.27063	1730.36951	38.92522	986.68341	1678.41125	159.86301	911.83521	1723.53125	122.51987	879.23798	1713.15369	197.00645	841.23376	1349.21350	57.49815	936.19220	1567.17993	29.67882	939.27069	1351.62073	-101.94035	960.09235	1519.19666	-118.62354	969.80957	1281.20508	67.65791	625.41925	1322.86328	131.50380	480.88486	1340.78198	201.99710	238.88692	1389.31140	276.93396	85.15137	1438.36804	247.64027	58.58404	1392.41418	420.76785	113.34509	1600.64880	-88.45348	615.02466	1577.33655	-115.25542	490.13718	1550.33789	-274.80231	268.71106	1490.78418	-368.00244	112.33275	1441.27600	-410.40787	106.34636	1502.61975	-238.67645	35.87934	1425.67627	-33.14699	1676.97412															 
70	0.690	1359.29761	73.49966	1628.18298	1490.94116	85.22675	1625.38098	1375.15076	-61.77732	1581.73792	1504.20093	-48.67474	1583.94824	1437.12952	-66.22552	1425.47009	1442.93518	-112.46299	1096.99866	1436.22449	41.92988	1344.82312	1435.14575	76.60169	1168.54358	1523.99036	-143.47165	1259.94971	1274.67676	-20.52357	1373.58911	1208.82043	-76.83277	1179.40979	1202.69519	-115.55016	1073.26990	1181.48096	-139.62311	924.94110	1221.77881	-116.13688	796.48138	1185.43591	-176.60677	811.79626	1187.53235	-166.40923	720.49420	1597.38513	1.82039	1382.90637	1699.54663	-35.71532	1193.21118	1720.99976	-18.75693	1077.54297	1729.92590	51.76139	986.10864	1677.62915	172.80180	911.77539	1722.83032	135.64236	879.00714	1712.24854	210.18510	841.29681	1349.39172	74.47949	935.60895	1567.47644	45.52020	938.40894	1351.03943	-84.99475	958.64258	1518.35681	-102.26023	968.04071	1281.64319	86.30106	625.28174	1323.64160	150.43533	481.39252	1340.91614	217.39241	237.40616	1389.80823	289.04694	82.36503	1438.21497	258.96597	55.43760	1395.01636	432.64233	109.63940	1601.81592	-72.98355	614.35437	1579.20129	-99.70230	489.28989	1552.29028	-265.36984	272.15375	1492.89685	-363.65778	118.86271	1443.65247	-406.23212	115.23721	1502.57397	-238.46941	35.86243	1424.80029	-18.87571	1675.69226															 
71	0.700	1358.37500	87.96516	1627.40833	1490.02991	99.62810	1624.75830	1374.23413	-47.16141	1580.75208	1503.25940	-34.14326	1583.05176	1436.29919	-51.42749	1424.42761	1442.53064	-96.23584	1095.68311	1435.50793	56.96000	1344.06628	1434.74695	92.31198	1168.00073	1523.11987	-128.12526	1258.74329	1273.86560	-5.67688	1372.39465	1208.43445	-62.02810	1178.21606	1202.56763	-101.01176	1072.15442	1181.46204	-125.96375	923.98773	1221.76038	-103.03726	795.36725	1185.55811	-163.58516	811.07275	1187.67554	-154.00356	719.69366	1596.70911	16.41672	1382.34082	1698.90259	-22.17153	1192.87488	1720.51770	-6.12167	1077.19763	1729.34619	64.18183	985.65436	1676.96191	185.13254	911.35712	1722.11230	147.90385	878.62646	1711.05945	221.99397	840.66809	1349.33057	91.75127	935.39630	1567.56140	61.83533	937.86523	1350.71021	-67.64822	957.55634	1517.71948	-85.65598	966.74591	1282.02075	105.73647	625.86847	1324.61243	169.86159	482.40491	1341.06494	231.49208	235.85222	1389.86511	298.17090	78.77359	1437.45630	266.84946	51.51859	1397.11145	441.90680	103.66632	1603.15063	-56.78385	613.80872	1581.37756	-83.03517	488.38870	1554.20996	-254.54726	275.82449	1494.89526	-358.19226	126.19274	1445.79211	-400.38931	124.98765	1502.48718	-238.10251	35.85894	1423.86780	-4.51693	1674.77173															 
